<mxfile host="app.diagrams.net" modified="2023-04-07T17:23:07.648Z" agent="Mozilla/5.0 (Windows NT 10.0; Win64; x64) AppleWebKit/537.36 (KHTML, like Gecko) Chrome/111.0.0.0 Safari/537.36 Edg/111.0.1661.62" etag="rpXIdXGWGa4DlxSL1pLm" version="21.1.5" type="google">
  <diagram name="Página-1" id="pOhIf3cIn-y3XBUNvEIk">
    <mxGraphModel grid="1" page="1" gridSize="12" guides="1" tooltips="1" connect="1" arrows="1" fold="1" pageScale="1" pageWidth="850" pageHeight="1100" math="0" shadow="0">
      <root>
        <mxCell id="0" />
        <mxCell id="1" parent="0" />
        <mxCell id="6v_0Te_m0r_uTX8pAqQ8-1" value="TelaInicial" style="rounded=0;whiteSpace=wrap;html=1;" vertex="1" parent="1">
          <mxGeometry x="-12" y="180" width="120" height="60" as="geometry" />
        </mxCell>
        <mxCell id="6v_0Te_m0r_uTX8pAqQ8-3" value="TelaCadastroUsuario" style="rounded=0;whiteSpace=wrap;html=1;" vertex="1" parent="1">
          <mxGeometry x="288" y="96" width="120" height="60" as="geometry" />
        </mxCell>
        <mxCell id="6v_0Te_m0r_uTX8pAqQ8-5" value="TelaBuscaReceita" style="rounded=0;whiteSpace=wrap;html=1;" vertex="1" parent="1">
          <mxGeometry x="288" y="324" width="120" height="60" as="geometry" />
        </mxCell>
        <mxCell id="6v_0Te_m0r_uTX8pAqQ8-6" value="TelaDetalhesReceita" style="rounded=0;whiteSpace=wrap;html=1;" vertex="1" parent="1">
          <mxGeometry x="444" y="564" width="120" height="60" as="geometry" />
        </mxCell>
        <mxCell id="6v_0Te_m0r_uTX8pAqQ8-9" value="TelaAvaliacao" style="rounded=0;whiteSpace=wrap;html=1;" vertex="1" parent="1">
          <mxGeometry x="444" y="456" width="120" height="60" as="geometry" />
        </mxCell>
        <mxCell id="6v_0Te_m0r_uTX8pAqQ8-10" value="TelaSugestao" style="rounded=0;whiteSpace=wrap;html=1;" vertex="1" parent="1">
          <mxGeometry x="288" y="456" width="120" height="60" as="geometry" />
        </mxCell>
        <mxCell id="6v_0Te_m0r_uTX8pAqQ8-15" value="ControladorSugerirReceita" style="rounded=0;whiteSpace=wrap;html=1;" vertex="1" parent="1">
          <mxGeometry x="648" y="312" width="180" height="60" as="geometry" />
        </mxCell>
        <mxCell id="6v_0Te_m0r_uTX8pAqQ8-19" value="ControladorUsuario" style="rounded=0;whiteSpace=wrap;html=1;" vertex="1" parent="1">
          <mxGeometry x="642" y="156" width="192" height="60" as="geometry" />
        </mxCell>
        <mxCell id="6v_0Te_m0r_uTX8pAqQ8-28" value="Usuário" style="rounded=0;whiteSpace=wrap;html=1;" vertex="1" parent="1">
          <mxGeometry x="948" y="204" width="120" height="60" as="geometry" />
        </mxCell>
        <mxCell id="6v_0Te_m0r_uTX8pAqQ8-17" value="ControladorReceitas" style="rounded=0;whiteSpace=wrap;html=1;" vertex="1" parent="1">
          <mxGeometry x="660" y="456" width="156" height="60" as="geometry" />
        </mxCell>
        <mxCell id="6v_0Te_m0r_uTX8pAqQ8-29" value="Receitas" style="rounded=0;whiteSpace=wrap;html=1;" vertex="1" parent="1">
          <mxGeometry x="1155" y="372" width="120" height="60" as="geometry" />
        </mxCell>
        <mxCell id="6v_0Te_m0r_uTX8pAqQ8-30" value="Ingrediente" style="rounded=0;whiteSpace=wrap;html=1;" vertex="1" parent="1">
          <mxGeometry x="1158" y="252" width="120" height="60" as="geometry" />
        </mxCell>
        <mxCell id="6v_0Te_m0r_uTX8pAqQ8-32" value="Avaliação" style="rounded=0;whiteSpace=wrap;html=1;" vertex="1" parent="1">
          <mxGeometry x="1155" y="480" width="123" height="60" as="geometry" />
        </mxCell>
        <mxCell id="6v_0Te_m0r_uTX8pAqQ8-41" value="Use" style="endArrow=open;endSize=12;dashed=1;html=1;rounded=0;exitX=1;exitY=0.5;exitDx=0;exitDy=0;entryX=0;entryY=0.5;entryDx=0;entryDy=0;" edge="1" parent="1" source="6v_0Te_m0r_uTX8pAqQ8-3" target="6v_0Te_m0r_uTX8pAqQ8-19">
          <mxGeometry width="160" relative="1" as="geometry">
            <mxPoint x="404" y="209.41000000000003" as="sourcePoint" />
            <mxPoint x="564" y="209.41000000000003" as="targetPoint" />
          </mxGeometry>
        </mxCell>
        <mxCell id="6v_0Te_m0r_uTX8pAqQ8-43" value="" style="endArrow=open;endFill=1;endSize=12;html=1;rounded=0;entryX=0;entryY=0.631;entryDx=0;entryDy=0;entryPerimeter=0;exitX=1;exitY=0.5;exitDx=0;exitDy=0;" edge="1" parent="1" source="6v_0Te_m0r_uTX8pAqQ8-1" target="6v_0Te_m0r_uTX8pAqQ8-3">
          <mxGeometry width="160" relative="1" as="geometry">
            <mxPoint x="96" y="384" as="sourcePoint" />
            <mxPoint x="254" y="376.62" as="targetPoint" />
          </mxGeometry>
        </mxCell>
        <mxCell id="6v_0Te_m0r_uTX8pAqQ8-44" value="" style="endArrow=open;endFill=1;endSize=12;html=1;rounded=0;exitX=0.5;exitY=1;exitDx=0;exitDy=0;" edge="1" parent="1" source="6v_0Te_m0r_uTX8pAqQ8-3" target="6v_0Te_m0r_uTX8pAqQ8-50">
          <mxGeometry width="160" relative="1" as="geometry">
            <mxPoint x="276" y="326" as="sourcePoint" />
            <mxPoint x="312" y="360" as="targetPoint" />
          </mxGeometry>
        </mxCell>
        <mxCell id="6v_0Te_m0r_uTX8pAqQ8-45" value="" style="endArrow=open;endFill=1;endSize=12;html=1;rounded=0;exitX=0.5;exitY=1;exitDx=0;exitDy=0;" edge="1" parent="1" source="6v_0Te_m0r_uTX8pAqQ8-10" target="6v_0Te_m0r_uTX8pAqQ8-6">
          <mxGeometry width="160" relative="1" as="geometry">
            <mxPoint x="396" y="444" as="sourcePoint" />
            <mxPoint x="336" y="384" as="targetPoint" />
            <Array as="points" />
          </mxGeometry>
        </mxCell>
        <mxCell id="6v_0Te_m0r_uTX8pAqQ8-50" value="TelaPerfilUsuario" style="rounded=0;whiteSpace=wrap;html=1;" vertex="1" parent="1">
          <mxGeometry x="288" y="228" width="120" height="48" as="geometry" />
        </mxCell>
        <mxCell id="6v_0Te_m0r_uTX8pAqQ8-51" value="" style="endArrow=open;endFill=1;endSize=12;html=1;rounded=0;exitX=1;exitY=0.5;exitDx=0;exitDy=0;" edge="1" parent="1" source="6v_0Te_m0r_uTX8pAqQ8-1">
          <mxGeometry width="160" relative="1" as="geometry">
            <mxPoint x="144" y="342" as="sourcePoint" />
            <mxPoint x="288" y="264" as="targetPoint" />
          </mxGeometry>
        </mxCell>
        <mxCell id="6v_0Te_m0r_uTX8pAqQ8-53" value="" style="endArrow=open;endFill=1;endSize=12;html=1;rounded=0;entryX=0.5;entryY=0;entryDx=0;entryDy=0;exitX=0.5;exitY=1;exitDx=0;exitDy=0;" edge="1" parent="1" source="6v_0Te_m0r_uTX8pAqQ8-50" target="6v_0Te_m0r_uTX8pAqQ8-5">
          <mxGeometry width="160" relative="1" as="geometry">
            <mxPoint x="312" y="420" as="sourcePoint" />
            <mxPoint x="321" y="504" as="targetPoint" />
          </mxGeometry>
        </mxCell>
        <mxCell id="6v_0Te_m0r_uTX8pAqQ8-55" value="" style="endArrow=open;endFill=1;endSize=12;html=1;rounded=0;exitX=1;exitY=0.5;exitDx=0;exitDy=0;" edge="1" parent="1" source="6v_0Te_m0r_uTX8pAqQ8-10" target="6v_0Te_m0r_uTX8pAqQ8-9">
          <mxGeometry width="160" relative="1" as="geometry">
            <mxPoint x="360.5" y="620" as="sourcePoint" />
            <mxPoint x="369.5" y="704" as="targetPoint" />
          </mxGeometry>
        </mxCell>
        <mxCell id="6v_0Te_m0r_uTX8pAqQ8-60" value="Use" style="endArrow=open;endSize=12;dashed=1;html=1;rounded=0;exitX=1;exitY=0.5;exitDx=0;exitDy=0;entryX=0;entryY=0.5;entryDx=0;entryDy=0;" edge="1" parent="1" source="6v_0Te_m0r_uTX8pAqQ8-50" target="6v_0Te_m0r_uTX8pAqQ8-19">
          <mxGeometry width="160" relative="1" as="geometry">
            <mxPoint x="372" y="384" as="sourcePoint" />
            <mxPoint x="612" y="372" as="targetPoint" />
          </mxGeometry>
        </mxCell>
        <mxCell id="6v_0Te_m0r_uTX8pAqQ8-61" value="Use" style="endArrow=open;endSize=12;dashed=1;html=1;rounded=0;entryX=0;entryY=0.5;entryDx=0;entryDy=0;exitX=1;exitY=0.5;exitDx=0;exitDy=0;" edge="1" parent="1" source="6v_0Te_m0r_uTX8pAqQ8-5" target="6v_0Te_m0r_uTX8pAqQ8-15">
          <mxGeometry width="160" relative="1" as="geometry">
            <mxPoint x="348" y="444" as="sourcePoint" />
            <mxPoint x="636" y="342" as="targetPoint" />
            <Array as="points" />
          </mxGeometry>
        </mxCell>
        <mxCell id="6v_0Te_m0r_uTX8pAqQ8-65" value="Use" style="endArrow=open;endSize=12;dashed=1;html=1;rounded=0;exitX=1;exitY=0;exitDx=0;exitDy=0;" edge="1" parent="1" source="6v_0Te_m0r_uTX8pAqQ8-10" target="6v_0Te_m0r_uTX8pAqQ8-15">
          <mxGeometry width="160" relative="1" as="geometry">
            <mxPoint x="324" y="414" as="sourcePoint" />
            <mxPoint x="612" y="366" as="targetPoint" />
            <Array as="points" />
          </mxGeometry>
        </mxCell>
        <mxCell id="6v_0Te_m0r_uTX8pAqQ8-67" value="" style="endArrow=open;endFill=1;endSize=12;html=1;rounded=0;" edge="1" parent="1" source="6v_0Te_m0r_uTX8pAqQ8-5" target="6v_0Te_m0r_uTX8pAqQ8-10">
          <mxGeometry width="160" relative="1" as="geometry">
            <mxPoint x="336" y="408" as="sourcePoint" />
            <mxPoint x="290.25" y="444" as="targetPoint" />
          </mxGeometry>
        </mxCell>
        <mxCell id="6v_0Te_m0r_uTX8pAqQ8-68" value="Use" style="endArrow=open;endSize=12;dashed=1;html=1;rounded=0;exitX=1;exitY=0.5;exitDx=0;exitDy=0;" edge="1" parent="1" source="6v_0Te_m0r_uTX8pAqQ8-9" target="6v_0Te_m0r_uTX8pAqQ8-17">
          <mxGeometry width="160" relative="1" as="geometry">
            <mxPoint x="591" y="480" as="sourcePoint" />
            <mxPoint x="834" y="396" as="targetPoint" />
            <Array as="points" />
          </mxGeometry>
        </mxCell>
        <mxCell id="6v_0Te_m0r_uTX8pAqQ8-69" value="Use" style="endArrow=open;endSize=12;dashed=1;html=1;rounded=0;exitX=1;exitY=0.5;exitDx=0;exitDy=0;entryX=0.5;entryY=1;entryDx=0;entryDy=0;" edge="1" parent="1" source="6v_0Te_m0r_uTX8pAqQ8-6" target="6v_0Te_m0r_uTX8pAqQ8-17">
          <mxGeometry width="160" relative="1" as="geometry">
            <mxPoint x="600" y="600" as="sourcePoint" />
            <mxPoint x="843" y="516" as="targetPoint" />
            <Array as="points" />
          </mxGeometry>
        </mxCell>
        <mxCell id="6v_0Te_m0r_uTX8pAqQ8-75" value="" style="endArrow=diamondThin;endFill=0;endSize=24;html=1;rounded=0;exitX=0;exitY=0.5;exitDx=0;exitDy=0;entryX=1;entryY=0.5;entryDx=0;entryDy=0;" edge="1" parent="1" source="6v_0Te_m0r_uTX8pAqQ8-28" target="6v_0Te_m0r_uTX8pAqQ8-19">
          <mxGeometry width="160" relative="1" as="geometry">
            <mxPoint x="852" y="276" as="sourcePoint" />
            <mxPoint x="1012" y="276" as="targetPoint" />
          </mxGeometry>
        </mxCell>
        <mxCell id="6v_0Te_m0r_uTX8pAqQ8-77" value="" style="endArrow=diamondThin;endFill=0;endSize=24;html=1;rounded=0;exitX=0;exitY=0.5;exitDx=0;exitDy=0;entryX=1;entryY=0.5;entryDx=0;entryDy=0;" edge="1" parent="1" source="6v_0Te_m0r_uTX8pAqQ8-79" target="6v_0Te_m0r_uTX8pAqQ8-15">
          <mxGeometry width="160" relative="1" as="geometry">
            <mxPoint x="954" y="367" as="sourcePoint" />
            <mxPoint x="828" y="360" as="targetPoint" />
          </mxGeometry>
        </mxCell>
        <mxCell id="6v_0Te_m0r_uTX8pAqQ8-79" value="IA" style="rounded=0;whiteSpace=wrap;html=1;" vertex="1" parent="1">
          <mxGeometry x="948" y="312" width="120" height="60" as="geometry" />
        </mxCell>
        <mxCell id="6v_0Te_m0r_uTX8pAqQ8-80" value="" style="endArrow=diamondThin;endFill=0;endSize=24;html=1;rounded=0;exitX=0;exitY=0.5;exitDx=0;exitDy=0;" edge="1" parent="1" source="6v_0Te_m0r_uTX8pAqQ8-30">
          <mxGeometry width="160" relative="1" as="geometry">
            <mxPoint x="1176" y="281.37" as="sourcePoint" />
            <mxPoint x="1068" y="336" as="targetPoint" />
          </mxGeometry>
        </mxCell>
        <mxCell id="6v_0Te_m0r_uTX8pAqQ8-81" value="" style="endArrow=diamondThin;endFill=0;endSize=24;html=1;rounded=0;exitX=0;exitY=0.25;exitDx=0;exitDy=0;entryX=0.998;entryY=0.602;entryDx=0;entryDy=0;entryPerimeter=0;" edge="1" parent="1" source="6v_0Te_m0r_uTX8pAqQ8-29" target="6v_0Te_m0r_uTX8pAqQ8-79">
          <mxGeometry width="160" relative="1" as="geometry">
            <mxPoint x="1188" y="300" as="sourcePoint" />
            <mxPoint x="1068" y="348" as="targetPoint" />
          </mxGeometry>
        </mxCell>
        <mxCell id="6v_0Te_m0r_uTX8pAqQ8-82" value="" style="endArrow=open;endFill=1;endSize=12;html=1;rounded=0;entryX=0.5;entryY=0;entryDx=0;entryDy=0;" edge="1" parent="1" source="6v_0Te_m0r_uTX8pAqQ8-29" target="6v_0Te_m0r_uTX8pAqQ8-32">
          <mxGeometry width="160" relative="1" as="geometry">
            <mxPoint x="1308" y="270" as="sourcePoint" />
            <mxPoint x="1296" y="228" as="targetPoint" />
          </mxGeometry>
        </mxCell>
        <mxCell id="6v_0Te_m0r_uTX8pAqQ8-85" value="" style="endArrow=diamondThin;endFill=0;endSize=24;html=1;rounded=0;exitX=0;exitY=0.75;exitDx=0;exitDy=0;entryX=1;entryY=0.5;entryDx=0;entryDy=0;" edge="1" parent="1" source="6v_0Te_m0r_uTX8pAqQ8-29" target="6v_0Te_m0r_uTX8pAqQ8-17">
          <mxGeometry width="160" relative="1" as="geometry">
            <mxPoint x="1131" y="456" as="sourcePoint" />
            <mxPoint x="828" y="480" as="targetPoint" />
          </mxGeometry>
        </mxCell>
      </root>
    </mxGraphModel>
  </diagram>
</mxfile>
